# xmcd CD database file
#
# Track frame offsets:
#	150
#	23235
#	47597
#	69380
#	89730
#	110555
#	134797
#	156325
#	173180
#	197355
#	212237
#	227105
#	244467
#
# Disc length: 3581 seconds
#
# Revision: 0
# Processed by: cddbd v1.4PL0 Copyright (c) Steve Scherf et al.
# Submitted via: CDex 1.50beta10
#
DISCID=c10dfb0d
DTITLE=Brian "the Saxman" Omundsen - All The Night's Magic
DYEAR=1997
DGENRE=Jazz
TTITLE0=Moondance
TTITLE1=Ole Devil Called Love
TTITLE2=St. Louis Blues
TTITLE3=Mack The Knife
TTITLE4=Route 66
TTITLE5=Kissing A Fool
TTITLE6=Tuxedo Junction
TTITLE7=Lady's A Tramp
TTITLE8=Sad Old Red
TTITLE9=Autumn Leaves
TTITLE10=Puttin' On The Ritz
TTITLE11=Minnie The Moocher
TTITLE12=Summertime
EXTD=YEAR: 1997
EXTT0=
EXTT1=
EXTT2=
EXTT3=
EXTT4=
EXTT5=
EXTT6=
EXTT7=
EXTT8=
EXTT9=
EXTT10=
EXTT11=
EXTT12=
PLAYORDER=
